<svg xmlns="http://www.w3.org/2000/svg" viewBox="0 0 1749.41 293.72"><path d="M158.66,3.82c1.71.35,3.38.81,5.06,1.23L84.12,96.32,83.9,6c8.11-1.7,16.23-3.36,24.41-4.68C125.19-1.38,142.05.34,158.66,3.82Z" fill="#fff"/><path d="M84.91,102.49l-.77-.67.21,86.23,5.2-6c0-.05-.07-.07-.09-.12l.23,0,129.08-148-.86-.69c-14.75-12.25-31.06-21.42-49.2-26.78Zm18.22-3.61a2.08,2.08,0,0,1,3-1.49c.8.26,1.39.67.89,1.84a3.28,3.28,0,0,1-3.09,1.41C102.88,100.46,102.87,99.7,103.13,98.88Zm-15.36,66.8c-.23-1,.58-1.35,1.25-1.57a7.88,7.88,0,0,1,6.67.52,7.42,7.42,0,0,1-6.24,1.93C88.68,166.49,88,166.65,87.77,165.68Z" fill="#fff"/><path d="M119.4,283c3.65-.3,2.78,3,4.36,4.13-3.83-.83-7.63-1.76-11.41-2.76l.18-.08C114.75,283.25,117,283.22,119.4,283Z" fill="#fff"/><path d="M79.67,175,79.25,7Q73.39,8.21,67.52,9.37C55,11.82,44.36,18,35.17,26.46,25,35.86,18.71,48.07,13.2,60.41,6.48,75.5,2.68,91.6.75,108.05a118.25,118.25,0,0,0-.24,24.3l79.28,90-.12-45.89a1.49,1.49,0,0,1-.07-1.37S79.65,175,79.67,175Zm-12.42-4.83c-2.79,3.64-6.31,3.83-9.84,4C59.5,170.17,63.32,170.94,67.25,170.14Zm0-112.64c-.53.94-1.19,2-2.48,1.88A1.91,1.91,0,1,1,66,55.77C66.88,56,68,56.27,67.29,57.5ZM79,213.26c-.41,1.47-1.39,1.19-2.53.76-.51-.27-1.7-.39-1.1-1.38a2.77,2.77,0,0,1,3-1.17C79.56,211.72,79.23,212.52,79,213.26Z" fill="#fff"/><path d="M1.47,140.5c.48,3.25,1.05,6.49,1.74,9.73C5.52,161.14,8.1,172,10.48,182.89c.58,2.71.59,5.55,1.28,8.22,3.15,12.22,6.74,24.34,13.7,35,3,4.6,6.11,9.43,10.24,12.87,6.08,5.07,13.13,9,19.75,13.43,5.94,4,12.24,7.6,17.7,12.19,2.18,1.85,4.45,3.56,6.76,5.18l-.09-34.56c-1.26-.25-2.2-1.3-2.93-2.8a4.26,4.26,0,0,1,2.92-1.07v-1.95L35.06,178.64C34,180,33.24,181.07,32.42,182a1.75,1.75,0,0,1-2,.54,1.84,1.84,0,0,1-1.25-1.71,1.73,1.73,0,0,1,1.45-1.91c1.26-.24,2.58-.37,4.22-.57Zm63,99.84c.58-1.24,1.56-.88,2.11-.17.79,1,2.77,1.09,2.43,3.34-1.27,0-2.7.22-3.87-.2S63.88,241.51,64.42,240.34Zm-25.9-48.76c.38-1.66,2-1.28,3.13-1.19s1.86.84,1.28,2.12a3.43,3.43,0,0,1-2.81,2.3C39.19,193.9,38.21,192.92,38.52,191.58Zm-18.64.34c.84-1.37,2.59-1.29,4.11-.93,1.12.26,2.4,1.55,2,2a3.56,3.56,0,0,1-4.32,1.25C20.44,193.86,19.12,193.17,19.88,191.92Z" fill="#fff"/><path d="M94.24,183.7,84.37,195l.19,77.88a92.32,92.32,0,0,0,20.32,9.35,35.09,35.09,0,0,1,19.27-2.95c3.5.46,4.73,3.44,2.93,6.49a14.94,14.94,0,0,1-1.36,1.8c7.87,1.67,15.8,3.14,23.69,4.68,13.41,2.62,26.58,2.09,38.89-4.87l.59.92c6.51-4.63,13.17-9.07,19.5-13.93a66.31,66.31,0,0,0,14.44-14.91,1.43,1.43,0,0,1-.63.11,4.53,4.53,0,0,0-3.6.76c-3.85,3.07-8.64,4.1-13.06,5.91-1.35.55-3.39,1.56-4.15.11-1-2,1.55-2.08,2.64-2.89a18.51,18.51,0,0,1,2.34-1.27c-1.73-1.25-3.06-.4-4.4-.32-3.26.2-6.44,1.39-9.72.93-.83-.12-2.29.46-2.53-1s1.18-1.47,2-1.94c5.5-3.17,11.87-3.27,17.78-5a18.54,18.54,0,0,1,9.28-.35c2.11.44,1.38,3.19,3.5,3.08.52,0,1.17.12,1.28.74,1-1.55,2-3.11,2.89-4.78,1.23-2.37,3.4-4.28,5.22-6.32,1.11-1.25,2.25-2.47,3.39-3.7-.12,0-.22.06-.34.07a6.2,6.2,0,0,1-1.79-.39c-.26.54-.37,1.23-1.2,1.23-1.52,2.26-4.51,2.68-6.11,5-.56.81-1.65,3-3.17,1.13-1.18-1.45,0-2.75,1.16-3.92,2.15-2.19,5.18-1.8,7.71-2.86h0l1.17-1.15a12.15,12.15,0,0,1,1.24-1.34,1.85,1.85,0,0,1,2.38-.2,1.2,1.2,0,0,1,.34.92v0c1.45-1.58,2.9-3.16,4.3-4.78s2.26-3.35,3.52-4.85a3.49,3.49,0,0,1-1.17-1.1,4.57,4.57,0,0,1-.8-3.6c.37-1.28,2.15-.62,2.62-.42a17.57,17.57,0,0,0,4.21,1.06c1.5-1.15,3-2.32,4.5-3.44a2.71,2.71,0,0,1,.19-.77,2.89,2.89,0,0,1,3.44-2c9-7.1,17.29-14.85,23.09-24.9,2.62-4.54,6.16-8.76,7.79-13.62,7.17-21.27,2.45-42-5.68-61.66-2.1-5-4.47-10-6.95-14.9-.1.26-.22.47-.63.25-.07,0,.11-.53.26-1-4.94-9.69-10.42-19.14-16-28.45a173.35,173.35,0,0,0-20.39-27.11c-4.79-5.26-10.64-9.57-16.34-14L121.28,152.69a8.94,8.94,0,0,0,3.11-2c.39-.46,1.22-.81,1.66-.22a1.92,1.92,0,0,1-.12,1.72c-1.07,1.66-2.79,2.83-3.33,4.93-.25,1-1.28.29-2,.16-1.3-.43-1.88-1-1.9-1.66L94.49,183.42A.74.74,0,0,1,94.24,183.7Zm188.67-9.14c.63-1.49,1.8.1,2.79-.2s1.1.64,1,1.52a2.19,2.19,0,0,1-2.63.69A1.47,1.47,0,0,1,282.91,174.56ZM236.28,140c.58-1.12,1.42-2.43,2.76-2.22,1,.16.75,1.42.33,2.41-.22,1-.58,1.92-2,1.41C236.6,141.37,235.78,141,236.28,140Zm4.1-15.11c-.28.91-.37,2.12-1.95,1.68-1.32-.37-1.53-1.08-1.09-2.28.61-1.65,1.12-3.33,1.68-5C240.19,121.25,241,123,240.38,124.93Zm17.64,0c-.09.74-1.08,2.24-2.42,1.57s-.79-2.41-1.22-3.71a2.28,2.28,0,0,1,2.36-1.3C258.44,121.94,258.16,123.76,258,124.92Zm20.29,1.88c-.64-.17-1.58-.19-1.48-1.35a4.77,4.77,0,0,1,3.21-1.61c.61,0,.88.78.74,1.42A1.8,1.8,0,0,1,278.31,126.8Zm-5,55.37c1.06-.95,1.63-2.77,3.75-2.26,1.62.4,2.62,1.82,2.27,3-.58,2-2.79,1.85-4.46,1.86C273.53,184.76,273,183.64,273.31,182.17Zm1.09-72c-1,2.17-2.78,2.37-4.33,2.33-2.78-.09,0,3.31-2.28,3.34C266.89,111.14,267.67,110.43,274.4,110.17ZM254.66,162.3a6.79,6.79,0,0,1,6.2-1.43C259.18,163.79,257.36,164.4,254.66,162.3Zm-9.38,29.07c.56-1.51,2.18-.93,3.31-1.3.44-.14.86.44.64,1.06-.48,1.37-1.66,1.77-2.89,2.06A1.5,1.5,0,0,1,245.28,191.37Zm-9.21-6.17c0-.8.72-.87,1.26-1.11h0l.92-.48c2.44-1.94,5.24-2.12,8.17-1.69.7.11,1.62.94,2.07.22,1.69-2.71,4.26-1.22,6.39-1.35.91,0,3,0,2.79,1.74-.17,1.57-1.78,2.15-3.22,2-3.12-.34-6.22-.83-9.3-1.4-1.16-.22-2.43-.75-3,.57-1,2.19-2.3.65-3.5.59l-1,.48-.9,1.1C236.53,185.64,236.08,185.43,236.07,185.2Zm-34.26-43.48c-.08.39-2.41.9-3.13.45-1.82-1.17-.14-2.61.19-4.5C200.49,139.08,202.19,139.87,201.81,141.72Zm8.59-10.08c.16,1-1,.68-1.89.47-1.28-1-2.71-2-3-3.92,1.24.21,1.92-1.58,3.38-.84C210.83,128.33,210.17,130.2,210.4,131.64Zm7.83,69a5.73,5.73,0,0,0-2.53,3.21c-2.65-2.54-.46-3.91,1.15-5.28a1.79,1.79,0,0,1,1.7.2A1.12,1.12,0,0,1,218.23,200.65Zm5.37,27.43c2.37.87,3.16,3.47,5.17,4.73.81.51,2.79.21,1.86,2a2.93,2.93,0,0,1-3.88,1.4C222.94,234.94,221.75,231.94,223.6,228.08Zm-1-39.35c.5-1,.47-3.08,2.35-2.48,2.2.7,1.26,2.61,1.15,4.08-.61.88-.33,2.81-2.14,1.9A2.56,2.56,0,0,1,222.61,188.73Zm-3-125.11c1.06-1.61,3-1.36,4.73-.89.94.49,2.62.39,1.85,2.14-1.08,2.45-3.14,1.09-4.78.93C220.26,65.69,218.85,64.8,219.61,63.62Zm-7.87,175.57c2.39-1.53,4.55-3.87,8.1-3-2.79.89-2.72,3.38-3.43,5.34a3.47,3.47,0,0,1-2.87,2.21c-1.24.26-1.9-.8-2.45-1.53A2.26,2.26,0,0,1,211.74,239.19ZM205,194.11a2.92,2.92,0,0,1-2.73-2.31c-.3-1.42,1.13-2.41,2.2-2.76,2.71-.86,5.33-2.39,8.41-1.81.28,2.59-2.76,3.22-3.1,4.71C209,195.33,206.8,194.09,205,194.11Zm-4.07,50a2.63,2.63,0,0,1,.7-.6c2-.75,6.92,2.41,7.21,4.69.22,1.73-1.24,2.5-2.4,2.77-.87.2-2.52,1.53-2.79.24-.5-2.34.25-5-2.77-6.24C200.83,244.93,200.92,244.49,201,244.09Zm-4.62-47.21a.67.67,0,0,1-.24-1.18c1.61-1.39,3-.32,4.39.52C199.35,198.45,197.78,197.44,196.33,196.88Zm-3.92,44a2.88,2.88,0,0,1,2.62-2c1.35-.09,2.6-1.51,4-.4a1.4,1.4,0,0,1,0,1.36c-1.14,1.24-2.5,2.2-4.3,1.9A13.75,13.75,0,0,1,192.41,240.92Zm-47.78-81.7c-1.1,2-3,2-5.45.91-.47-.25-2.47-.23-1.68-1.94,1.13-2.47,3.63-1.68,5.66-1.48A1.68,1.68,0,0,1,144.63,159.22Zm5.27,48.09c-.39,1.71-1.82,1.55-3,1.57-.86,0-1.42-.56-.84-1.91,1.28,0,.72-2.69,2.72-2.16C149.9,205.11,150.17,206.16,149.9,207.31Zm7.09,7.23c.73-.16,1.49-.21,2.81-.38-.74,1-1.12,1.45-1.47,1.94-1.16,1.61-2.83.45-4.24.73-.65.13-.64-.71-.43-1.14C154.36,214.23,155.84,214.8,157,214.54Zm3.91-74.89a1.62,1.62,0,0,1-1.84,1c-1.05-.27-1.17-1.2-1-2.15.46-.86,1.14-1.59,2.11-1.17A1.61,1.61,0,0,1,160.9,139.65Zm.76,117.17c0,1.33-7.78,4.09-9.23,3.39-2.74-1.31-2.25-4-1.7-5.95.88-3.14,3.72-2.76,6.3-2.34C159.09,253.14,161.64,254,161.66,256.82Zm6,5.73c-2.59.2-3.7,3-6.2,1.16-.48-.36-.86-1.15-.34-1.65C163,260.27,164.94,260.75,167.68,262.55Zm15.93-120.47c-.32,1.13-1.23,1.48-2.69,1.18-.59-.89-2.33-1.51-2-3,.22-1.19,1.77-1,2.84-.81C183.09,139.73,184.07,140.49,183.61,142.08Zm4.71,65.83c-.71.82-2.06,1.09-2.95,1.51-1.15-.28-1-.91-.81-1.52.34-1.23,1.07-2,2.42-1.81C188,206.25,188.81,207.35,188.32,207.91Zm-7.65,43.85c-.73-.42-2.57-.6-1.75-1.73,1.4-1.93,1.45-4.66,3.59-6,1.65-1.06,3.49-1.58,5.23-.2,1.32,1.05,2.37,2.23,1.41,4.19S182.94,252.47,180.67,251.76Zm.74,33.25c.4-1.28,1.56-.91,2.49-.56.63.24,1.79.28,1.44,1.3-.4,1.17-1.5,1.14-2.54.76C182,286.32,181.17,285.76,181.41,285Zm-3.85-19.93c.75-2,4-3.17,6.6-2.37,2.86.87,2.44,3.14,1.42,5.68-.31,2-1.27,3.41-4.07,2.33S176.7,267.35,177.56,265.08Zm-5.94,7.12c.61-1.33,2.22-1.21,3.35-1.05a1.71,1.71,0,0,1,1.14,2.36,2.25,2.25,0,0,1-2.88.92C172.06,274,171.13,273.29,171.62,272.2Zm-3.38-22.49c-.83.47-2.27.67-.91,2.19.32.36-.61,1-.89.68-1.08-1.33-3-2.32-2.46-4.48s2.22-1.49,3.66-1.59c.67.38,1.7.61,1.89,1.14C169.85,248.55,169.08,249.24,168.24,249.71ZM146.88,271c.44-1.2,1.94-.53,3.07-.36a8,8,0,0,0,3.65-.77c4.26-1.46,8.45-3.22,13.12-3,1,.05,1.81.17,2.15,1.1.5,1.4-1,1.43-1.54,1.53-3.42.59-5.83,2.83-8.58,4.73l3.61,1.78c-9.37,4.7-9.3,4.64-14.35-.92A4,4,0,0,1,146.88,271Zm-1.82-3.51c-.74-.19-1.62-.81-1-1.7a2.44,2.44,0,0,1,3-.9c.78.3,1.45.68,1,1.62C147.51,267.8,146.49,268.06,145.06,267.53Zm-3.72,13c0-.45,1.27-1.05,1.95-.45,1.22,1.09,2,2.37.21,3.91A4.26,4.26,0,0,1,141.34,280.5Zm-1.4-18.23c-.56-.59-.95-1.92-2.19-1.09s-2.31,1.88-3.74.91c-1.65-1.13-.12-2.83-.56-4.68,1-1.1,1.54-2.92,4.15-2.15s3.73,2.75,5,4.8c.51.81,1.84,1.62.81,2.4A2.57,2.57,0,0,1,139.94,262.27ZM131.25,276c1.09-2.58,2.92-3.72,4.87-2.65,2.16.94,4.53,1.28,3.59,3.1-1.2,2.3-3.84,3.05-6.51,2.51C131.69,278.66,130.51,277.76,131.25,276Zm-9.41-10.42a1.85,1.85,0,0,1,1-1.54,12.4,12.4,0,0,1,7.95-2c1.32.05,2,1.28.91,2.05a16.65,16.65,0,0,1-8.25,2.75C122.59,266.5,121.85,266.42,121.84,265.59Zm-3.78-91.83a1,1,0,0,1,1.79-.38c.63.62,1.77,1,1.54,2.27-.62.53-1.42,1.07-2,.48S117.52,175.08,118.06,173.76Zm-13.87,90.93c.33-1.22,1.1-2.17,2.46-1.71,2.08.71,1.54,2.65,1.5,4.17,0,1.19-.88,1.78-2.8.9A2.87,2.87,0,0,1,104.19,264.69Zm-15-58a1.71,1.71,0,0,1-2.19,1c-1-.27-1-1-.7-1.81.3-1.15,1-1.31,2-.93C89.25,205.32,89.66,205.85,89.24,206.73Zm4.5,63.5a2.76,2.76,0,0,1,3.12-.83c1.36.58,3,.65,5,2.68-1.9.69-3.21,1.14-4.5,1.64s-2.34.32-2.77-1.05C94.37,271.82,92.57,271.37,93.74,270.23Z" fill="#fff"/><line x1="1264.43" y1="253.49" x2="1749.41" y2="253.49" fill="none" stroke="#fff" stroke-miterlimit="10" stroke-width="2"/><path d="M386.67,266.72l12-56.37h18.59a17.29,17.29,0,0,1,7.74,1.59,11.57,11.57,0,0,1,4.9,4.35,12.06,12.06,0,0,1,1.7,6.41,13.58,13.58,0,0,1-1.82,6.87,16.06,16.06,0,0,1-4.92,5.3,17,17,0,0,1-7,2.75l0,.16a13.23,13.23,0,0,1,7.91,3.77,11.21,11.21,0,0,1,3.07,8.22,14.74,14.74,0,0,1-2.78,8.92,18,18,0,0,1-7.71,5.92,29.08,29.08,0,0,1-11.51,2.11Zm20.27-2.81a24.94,24.94,0,0,0,9.77-1.78,15.29,15.29,0,0,0,6.56-4.94,11.79,11.79,0,0,0,2.34-7.19,10.07,10.07,0,0,0-1.76-6.07,10.37,10.37,0,0,0-4.8-3.63,19,19,0,0,0-7-1.2H395.69l-5.31,24.81Zm-10.66-27.58h16.25a18.26,18.26,0,0,0,8-1.72,14.81,14.81,0,0,0,5.77-4.69,11.15,11.15,0,0,0,2.15-6.71,9.33,9.33,0,0,0-3.05-7.33q-3-2.72-9-2.71H401.2Z" fill="#fff"/><path d="M442.21,265.3a13.84,13.84,0,0,1-5.48-5.88,19.34,19.34,0,0,1-1.9-8.79,31.24,31.24,0,0,1,1.54-9.94,25.31,25.31,0,0,1,4.34-8,20,20,0,0,1,6.6-5.33,18.08,18.08,0,0,1,8.26-1.92,16.1,16.1,0,0,1,8.11,1.95,13.25,13.25,0,0,1,5.27,5.55,18.42,18.42,0,0,1,1.86,8.56,25,25,0,0,1-.16,2.79,18.61,18.61,0,0,1-.43,2.56h-32c-.1.75-.18,1.42-.23,2a15.13,15.13,0,0,0-.08,1.54,17,17,0,0,0,1.58,7.6,11.56,11.56,0,0,0,4.51,4.92,13.39,13.39,0,0,0,7,1.74,15.65,15.65,0,0,0,8.94-2.52,14.19,14.19,0,0,0,5.43-7h3.05a17.11,17.11,0,0,1-9.75,10.76,19.87,19.87,0,0,1-7.83,1.5A16.78,16.78,0,0,1,442.21,265.3Zm25.28-21a11.74,11.74,0,0,0,.21-1.33c0-.41.06-1,.06-1.64a15.42,15.42,0,0,0-1.44-6.83,10.85,10.85,0,0,0-4.18-4.63,12.63,12.63,0,0,0-6.68-1.66,15,15,0,0,0-7.74,2.07,17.76,17.76,0,0,0-5.88,5.7,22.52,22.52,0,0,0-3.22,8.32Z" fill="#fff"/><path d="M497.8,266a11,11,0,0,1-4.49-3.75,9.53,9.53,0,0,1-1.64-5.53,10.59,10.59,0,0,1,4.39-9q4.4-3.28,12.4-3.71l14-.79.74-3.39c.1-.58.19-1.11.25-1.61a10.16,10.16,0,0,0,.1-1.44,7.71,7.71,0,0,0-2.79-6.31q-2.79-2.28-7.79-2.28a16.4,16.4,0,0,0-6.29,1.13,11.19,11.19,0,0,0-7,8.24h-3.16a14.13,14.13,0,0,1,3-6.39,15.27,15.27,0,0,1,5.76-4.23,19.42,19.42,0,0,1,7.87-1.53,16.7,16.7,0,0,1,7,1.39,10.75,10.75,0,0,1,4.67,3.87,10.27,10.27,0,0,1,1.64,5.8c0,.54,0,1.11-.08,1.7a14.06,14.06,0,0,1-.27,1.77l-5.7,26.76h-2.93l1.56-7.3H519a15.57,15.57,0,0,1-3.73,4.18,17.66,17.66,0,0,1-10.92,3.75A15.08,15.08,0,0,1,497.8,266Zm14.1-2.87a16.22,16.22,0,0,0,5.53-4.32,14.4,14.4,0,0,0,3-6.23l1.48-6.8-13.44.78q-6.6.31-10.19,2.91a8.22,8.22,0,0,0-3.6,7,7.24,7.24,0,0,0,2.84,5.93,11.41,11.41,0,0,0,7.36,2.27A15.9,15.9,0,0,0,511.9,263.13Z" fill="#fff"/><path d="M535.2,265.08a5.94,5.94,0,0,1-2.36-5.12,12,12,0,0,1,.12-1.64c.07-.57.18-1.18.31-1.83l5.9-27.74h-5.9l.55-2.65h5.93L542,215.35h3.05L542.8,226.1h8.75l-.55,2.65h-8.79L536.43,256c-.13.6-.23,1.16-.31,1.68a9.72,9.72,0,0,0-.12,1.48,4.33,4.33,0,0,0,1.68,3.71,7.53,7.53,0,0,0,4.61,1.25c.13,0,.37,0,.72,0l1,0a3.72,3.72,0,0,0,.63,0l-.55,2.65a6.72,6.72,0,0,1-1.31.1l-1.35,0A10.42,10.42,0,0,1,535.2,265.08Z" fill="#fff"/><path d="M580.14,210.35h3.05l-5.12,23.71h.16a18.91,18.91,0,0,1,6-6.15,15.69,15.69,0,0,1,8.77-2.44,14.73,14.73,0,0,1,7,1.62,11.91,11.91,0,0,1,4.7,4.44,12.07,12.07,0,0,1,1.68,6.32c0,.55,0,1.16-.09,1.84s-.17,1.39-.3,2.15l-5.43,24.88h-3l5.23-24.3c.16-.75.27-1.45.35-2.11a14.22,14.22,0,0,0,.12-1.71,9.84,9.84,0,0,0-3-7.54,11.58,11.58,0,0,0-8.24-2.85,14.29,14.29,0,0,0-7.13,1.81,16.44,16.44,0,0,0-5.39,4.88,18.62,18.62,0,0,0-3,6.78l-5.39,25h-3Z" fill="#fff"/><path d="M641.14,227.6a15.09,15.09,0,0,1,5.74,6,19.06,19.06,0,0,1,2,9.07,29,29,0,0,1-1.58,9.76,24.9,24.9,0,0,1-4.39,7.85,20.17,20.17,0,0,1-6.62,5.22,18.6,18.6,0,0,1-8.27,1.85,17,17,0,0,1-8.71-2.16,14.85,14.85,0,0,1-5.74-6,19.28,19.28,0,0,1-2-9.06,29.61,29.61,0,0,1,1.56-9.77,24.56,24.56,0,0,1,4.4-7.85,20,20,0,0,1,6.62-5.21,18.42,18.42,0,0,1,8.24-1.86A16.88,16.88,0,0,1,641.14,227.6Zm-4,34.14a20,20,0,0,0,6.36-7.81,25.48,25.48,0,0,0,2.37-11.15q0-6.57-3.68-10.57a12.63,12.63,0,0,0-9.8-4,15.17,15.17,0,0,0-9.06,2.87,19.62,19.62,0,0,0-6.37,7.81A25.72,25.72,0,0,0,614.64,250q0,6.57,3.65,10.57a12.57,12.57,0,0,0,9.78,4A15.24,15.24,0,0,0,637.16,261.74Z" fill="#fff"/><path d="M660.07,226.1h3l-1.64,7.77h.16a15.16,15.16,0,0,1,5.1-6.21,12.66,12.66,0,0,1,7.4-2.23,11.32,11.32,0,0,1,7.83,2.78,10.26,10.26,0,0,1,3.5,6.95h.15a16.21,16.21,0,0,1,3.09-4.92,15.07,15.07,0,0,1,4.75-3.5,13.78,13.78,0,0,1,6-1.31,12.09,12.09,0,0,1,6,1.47,10.84,10.84,0,0,1,4.12,4,11.21,11.21,0,0,1,1.5,5.82c0,.81,0,1.64-.11,2.5a17,17,0,0,1-.36,2.31l-5.35,25.19h-3l5.23-24.61a21.7,21.7,0,0,0,.37-2.4,22.47,22.47,0,0,0,.14-2.25,9.08,9.08,0,0,0-2.58-6.66,9.21,9.21,0,0,0-6.84-2.59,11.28,11.28,0,0,0-5.84,1.6A13.77,13.77,0,0,0,688,234.4a21.53,21.53,0,0,0-2.82,7.16l-5.35,25.16h-3.05L682,242.11c.16-.73.28-1.53.39-2.4a20.38,20.38,0,0,0,.16-2.25A9.08,9.08,0,0,0,680,230.8a9.26,9.26,0,0,0-6.88-2.59,11,11,0,0,0-5.8,1.62,14.54,14.54,0,0,0-4.61,4.57,20.22,20.22,0,0,0-2.79,7l-5.43,25.35h-3.05Z" fill="#fff"/><path d="M723.27,265.3a13.8,13.8,0,0,1-5.49-5.88,19.47,19.47,0,0,1-1.89-8.79,31,31,0,0,1,1.54-9.94,25.29,25.29,0,0,1,4.33-8,20.14,20.14,0,0,1,6.61-5.33,18.08,18.08,0,0,1,8.26-1.92,16.08,16.08,0,0,1,8.1,1.95,13.34,13.34,0,0,1,5.28,5.55,18.54,18.54,0,0,1,1.85,8.56,27.54,27.54,0,0,1-.15,2.79,20.26,20.26,0,0,1-.43,2.56h-32q-.16,1.13-.24,2c0,.59-.08,1.1-.08,1.54a17,17,0,0,0,1.58,7.6,11.58,11.58,0,0,0,4.52,4.92,13.35,13.35,0,0,0,7,1.74,15.68,15.68,0,0,0,8.95-2.52,14.18,14.18,0,0,0,5.42-7h3a17.13,17.13,0,0,1-9.74,10.76,19.89,19.89,0,0,1-7.84,1.5A16.74,16.74,0,0,1,723.27,265.3Zm25.27-21a10,10,0,0,0,.22-1.33c0-.41.06-1,.06-1.64a15.42,15.42,0,0,0-1.45-6.83,10.79,10.79,0,0,0-4.18-4.63,12.61,12.61,0,0,0-6.68-1.66,15,15,0,0,0-7.73,2.07,17.57,17.57,0,0,0-5.88,5.7,22.35,22.35,0,0,0-3.22,8.32Z" fill="#fff"/><path d="M758.09,266.25a2.57,2.57,0,0,1-.76-1.83,2.6,2.6,0,0,1,2.62-2.58,2.45,2.45,0,0,1,1.81.76,2.48,2.48,0,0,1,.77,1.82,2.53,2.53,0,0,1-.77,1.83A2.43,2.43,0,0,1,760,267,2.51,2.51,0,0,1,758.09,266.25Z" fill="#fff"/><path d="M828.31,247.89H803l-11.14,18.83h-3.55l33.44-56.37h3.16l9.45,56.37h-3Zm-23.79-2.73h23.36l-5.16-30.82h-.15Z" fill="#fff"/><path d="M848.23,226.1h3l-1.72,8.12h.16a18.92,18.92,0,0,1,6.07-6.35,15.83,15.83,0,0,1,8.77-2.44,14.56,14.56,0,0,1,6.89,1.58,12,12,0,0,1,4.69,4.3,11.53,11.53,0,0,1,1.7,6.23,18.7,18.7,0,0,1-.12,2.09,20.2,20.2,0,0,1-.35,2.21L872,266.72h-3.05l5.16-24.3c.16-.75.29-1.48.39-2.18a14.38,14.38,0,0,0,.16-2,9.42,9.42,0,0,0-3-7.28,11.57,11.57,0,0,0-8.13-2.75,14.31,14.31,0,0,0-7.09,1.79,16.36,16.36,0,0,0-5.41,4.87,17.79,17.79,0,0,0-3,6.81l-5.39,25h-3Z" fill="#fff"/><path d="M878.15,280.53c-.52-.07-1-.14-1.37-.22l.51-2.65a8.17,8.17,0,0,0,1.23.23,11,11,0,0,0,1.12.08,7.39,7.39,0,0,0,4.66-1.66,19.15,19.15,0,0,0,4.4-5.68l.55-.92.91-1.6c.3-.54.48-.84.53-.92l-6.91-41.09h3l6.14,37.46h.15l21.49-37.46H918l-26.57,45.62a28.33,28.33,0,0,1-3.82,5.41,11.14,11.14,0,0,1-3.77,2.72,11.36,11.36,0,0,1-4.28.78A12.43,12.43,0,0,1,878.15,280.53Z" fill="#fff"/><path d="M952.25,266.72h-3.63L945.22,230h-.12l-18.94,36.76h-3.75l-3.09-40.62h2.86l2.73,37.18H925l19.06-37.18h3.51l3.33,37.18h.15l18.36-37.18h3.16Z" fill="#fff"/><path d="M980.89,210.35h3l-5.11,23.71H979a19,19,0,0,1,6-6.15,15.72,15.72,0,0,1,8.77-2.44,14.73,14.73,0,0,1,7,1.62,11.87,11.87,0,0,1,4.71,4.44,12.07,12.07,0,0,1,1.68,6.32c0,.55,0,1.16-.1,1.84s-.16,1.39-.29,2.15l-5.43,24.88h-3l5.23-24.3a20.58,20.58,0,0,0,.35-2.11,14.22,14.22,0,0,0,.12-1.71,9.8,9.8,0,0,0-3-7.54,11.58,11.58,0,0,0-8.24-2.85,14.29,14.29,0,0,0-7.13,1.81,16.44,16.44,0,0,0-5.39,4.88,18.79,18.79,0,0,0-3,6.78l-5.39,25h-3Z" fill="#fff"/><path d="M1019.52,265.3a13.8,13.8,0,0,1-5.49-5.88,19.47,19.47,0,0,1-1.89-8.79,31,31,0,0,1,1.54-9.94,25.29,25.29,0,0,1,4.33-8,20.14,20.14,0,0,1,6.61-5.33,18.08,18.08,0,0,1,8.26-1.92,16.08,16.08,0,0,1,8.1,1.95,13.34,13.34,0,0,1,5.28,5.55,18.54,18.54,0,0,1,1.85,8.56,27.54,27.54,0,0,1-.15,2.79,20.26,20.26,0,0,1-.43,2.56h-32q-.16,1.13-.24,2c0,.59-.08,1.1-.08,1.54a17,17,0,0,0,1.58,7.6,11.58,11.58,0,0,0,4.52,4.92,13.35,13.35,0,0,0,7,1.74,15.68,15.68,0,0,0,9-2.52,14.18,14.18,0,0,0,5.42-7h3.05a17.13,17.13,0,0,1-9.74,10.76,19.89,19.89,0,0,1-7.84,1.5A16.74,16.74,0,0,1,1019.52,265.3Zm25.27-21a10,10,0,0,0,.22-1.33c0-.41.06-1,.06-1.64a15.42,15.42,0,0,0-1.45-6.83,10.79,10.79,0,0,0-4.18-4.63,12.61,12.61,0,0,0-6.68-1.66,15,15,0,0,0-7.73,2.07,17.57,17.57,0,0,0-5.88,5.7,22.35,22.35,0,0,0-3.22,8.32Z" fill="#fff"/><path d="M1058.74,226.1h2.93l-1.49,7h.16a16.25,16.25,0,0,1,5.12-5.69,11.84,11.84,0,0,1,6.56-1.89,14.25,14.25,0,0,1,3,.31,8.83,8.83,0,0,1,2.24.74l-.7,3a5.8,5.8,0,0,0-2.13-.88,13.4,13.4,0,0,0-3-.33,10.29,10.29,0,0,0-5.78,1.72,14.68,14.68,0,0,0-4.47,4.82,24.44,24.44,0,0,0-2.79,7.33l-5.2,24.49h-3.05Z" fill="#fff"/><path d="M1082.25,265.3a13.92,13.92,0,0,1-5.49-5.88,19.47,19.47,0,0,1-1.89-8.79,31,31,0,0,1,1.54-9.94,25.31,25.31,0,0,1,4.34-8,20,20,0,0,1,6.6-5.33,18.08,18.08,0,0,1,8.26-1.92,16.1,16.1,0,0,1,8.11,1.95,13.32,13.32,0,0,1,5.27,5.55,18.42,18.42,0,0,1,1.86,8.56,27.66,27.66,0,0,1-.16,2.79,18.61,18.61,0,0,1-.43,2.56h-32c-.1.75-.18,1.42-.23,2a15.13,15.13,0,0,0-.08,1.54,16.82,16.82,0,0,0,1.58,7.6,11.56,11.56,0,0,0,4.51,4.92,13.35,13.35,0,0,0,7,1.74,15.66,15.66,0,0,0,9-2.52,14.19,14.19,0,0,0,5.43-7h3.05a17.3,17.3,0,0,1-3.7,6.48,17.05,17.05,0,0,1-6,4.28,19.87,19.87,0,0,1-7.83,1.5A16.78,16.78,0,0,1,1082.25,265.3Zm25.28-21a11.74,11.74,0,0,0,.21-1.33c0-.41.06-1,.06-1.64a15.28,15.28,0,0,0-1.45-6.83,10.77,10.77,0,0,0-4.17-4.63,12.63,12.63,0,0,0-6.68-1.66,15,15,0,0,0-7.74,2.07,17.76,17.76,0,0,0-5.88,5.7,22.52,22.52,0,0,0-3.22,8.32Z" fill="#fff"/><path d="M1616.69,140.78h-73.27V100.19h63V84.92h-63V46.31h70.76V30.69h-88.73V156.4h91.24ZM1588,85.94c1.42-.38,2.44.41,3.39,1.27a1.86,1.86,0,0,1-1.57,1.85,3,3,0,0,1-3.12-1.74C1586.15,86.3,1587.34,86.12,1588,85.94Zm-54.49,23.81c-1.51-.35-3.41.52-4.55-1.14-.12-.17.87-1.47,1.55-1.77,1.7-.73,2.89.61,4.1,1.51C1534.75,108.45,1534.35,109.58,1533.52,109.75Z" fill="#fdfdfd"/><path d="M1117.75,32.6c.62.26,1.16.88,1.55,2.23l-1.55.52V46.7h43.1V156.79h17.79V46.7h43.1V31.07h-104Z" fill="#fdfdfd"/><path d="M1734.67,156.4h14.73V30.69h-18v93.75L1656,30.71a6.86,6.86,0,0,1,0,1.63c-.26,2.45-2.6.58-3.71.6a2.55,2.55,0,0,1-2.28-2.25h-8.78v27c.91.33,2,.7,1.5,1.89a1.88,1.88,0,0,1-1.5,1V74.41a15,15,0,0,0,1.64-3.25c1.1,3.46,2.31,6.08.93,9.09-.46,1-.88,2.16-2,2.14a1.33,1.33,0,0,1-.59-.19v74.2h18V62.66Zm-77.49-89.27a1.76,1.76,0,0,1-.6,1.38c-4-1.73-3.33-4.56-3.53-7-.11-1.28,1-1.3,1.85-1C1658,61.89,1656.88,64.81,1657.18,67.13Z" fill="#fdfdfd"/><path d="M1383.1,124.08V141.9c1.72-.78,3.18-2,4.91-2.46,2-.57,2.79.1,2.1,2.06s-1.34,3.94-3.26,4.89-2.58-1.14-3.75-2v12h53a89.68,89.68,0,0,0,12.8-.91l.14,0c.78-.11,1.55-.23,2.32-.36a2.75,2.75,0,0,1-1.85-1.8c-.89-2.63,1.59-4.24,4-5.18,2.08-.86,3.71-.95,4.57,1.71.57,1.75.36,3-.56,3.93a68.94,68.94,0,0,0,13.39-5l0,0c-.35-1.37.11-2.89,1.27-3.25s2.09.26,3,1a57.57,57.57,0,0,0,20.33-20.16Q1504,112,1504,93.54t-8.52-32.76a58.12,58.12,0,0,0-24-22.19q-15.43-7.89-35.38-7.9h-53V121C1384.53,122.19,1383.92,123.16,1383.1,124.08Zm116.59-26.85c1.26-.45,2.33-.29,2.92,1,.45,1-.24,1.39-1,1.66a2.46,2.46,0,0,1-3.11-.84C1497.84,98.16,1498.8,97.55,1499.69,97.23Zm-83.64,51.21c-2.31.62-1.52,2.34-1.23,4-2.16-2-3.35-3.81-.83-5.91.54-.44,1.57-.91,2.08-.21A2.64,2.64,0,0,1,1416.05,148.44Zm18.43,6.86c-2.86.89-3.72-1.34-4.7-3.26-1.07-2.32.36-3.7,2.15-4s4.59-1.44,5.38,1.78C1437.92,152.37,1437.15,154.47,1434.48,155.3Zm28.25-14.63c-.5,0-1.35-.12-1-1.12.54-1.69,1.62-2.54,3.81-2.31C1465.05,139.14,1464.85,140.78,1462.73,140.67Zm-69.79-10c3.15.93,3.22.7,5,5.83a16.75,16.75,0,0,1,3.12-.35v-9.68a.68.68,0,0,1-.82.37,3.42,3.42,0,0,1-2.5-2.17c-.48-1.37.77-2,2.45-2.46l.87,0V46.31h34q15.27,0,26.85,5.93a42.74,42.74,0,0,1,17.86,16.62,47.74,47.74,0,0,1,6.3,24.68,47.81,47.81,0,0,1-6.3,24.7,42.7,42.7,0,0,1-17.86,16.6q-11.59,5.94-26.85,5.94h-8.7a10.77,10.77,0,0,1,2.23,5.93,16.24,16.24,0,0,1-7.74-2.6c-1.37-.85-2.33-2-1.63-3.33h-9.88c-.17.17-.33.35-.55.54a9.76,9.76,0,0,0-3,3.47c-.43,1.06-.21,2.74-2.32,1.94-1.59-.6-2.59-1.25-2.2-3.24a5.15,5.15,0,0,0-.15-2.71h0v-.14a6.94,6.94,0,0,0-3.52-3.48c-2.62-.88-5.7-1.12-6.44-4.63C1390.77,131,1390.56,130,1392.94,130.65Z" fill="#fdfdfd"/><path d="M1273.25,155.48l1.49-.5a5.91,5.91,0,0,0,1.51,1.42h15.64a.93.93,0,0,1-.21-.6,3.8,3.8,0,0,1,1.88-3.51c.92-.43,2,.77,2.06,1.61a2.94,2.94,0,0,1-1,2.5h38.42a3.18,3.18,0,0,1-.18-.37c-.29-.91-.38-2,.76-2.09,1.62-.09,3.64.14,4.51,1.43a.88.88,0,0,1,.06,1h17.47V140.78h-73.28V100.19h63V84.92h-63V46.31h70.76V30.69h-88.72V156.4h8.64A2.16,2.16,0,0,0,1273.25,155.48Zm36.83-5.69a12.58,12.58,0,0,1-7.76-2.89C1305.11,146.94,1308.74,144.77,1310.08,149.79Z" fill="#fdfdfd"/><path d="M586.46,99.68q7.17-10.25,7.17-24.78,0-20.48-14-32.15T541.2,31.07h-49V156.79h18V118.54H541.2c1.91,0,4.54-.11,7.9-.36l27.11,38.61H595.8L566,114.58Q579.27,109.92,586.46,99.68Zm-45.8,3.59H510.13V46.7h30.53q17.05,0,26,7.28t9,20.92c0,9.09-3,16.11-9,21S552,103.27,540.66,103.27Z" fill="#fdfdfd"/><path d="M451.77,42.75q-14-11.66-38.43-11.68h-14c.57,1.18.79,2.52-.7,3.1-2.8,1.09-2.68-1.87-4.38-3.1H383V46.7H412.8q17.06,0,26,7.28t9,20.92q0,13.63-9,20.92t-26,7.27H383v15.63h30.32q24.42,0,38.43-11.68t14-32.14Q465.77,54.43,451.77,42.75ZM406,38.8c-.84.18-3-1.29-2.38-2.8.52-1.34,2.34-2,3.95-1.73,3.22.47,4.22,2.91,5,6.57C410.12,39.48,408.41,38.31,406,38.8Zm23.61.52c-2.26,1.22-5.32-.11-6.45-2.69-.15-.73-1.09-1.55.31-2.21,1.73-.82,7.28.2,7.93,1.61C432.26,37.84,430.84,38.67,429.65,39.32ZM441.51,47l-1.43.64c-.85-1.27-3.85-1.5-2.05-4a2.21,2.21,0,0,1,2.8-.73C443,43.89,441.26,45.59,441.51,47Z" fill="#fdfdfd"/><path d="M1006.88,93.93a48.44,48.44,0,0,1,6.38-24.68A45.58,45.58,0,0,1,1031,51.91a51.26,51.26,0,0,1,25.32-6.28q21.18,0,35.37,14.91l11.68-11.33a55.18,55.18,0,0,0-20.83-14.63,71.35,71.35,0,0,0-27-4.94,72.25,72.25,0,0,0-25.71,4.51,2.18,2.18,0,0,1-1.22.48,66.87,66.87,0,0,0-7.18,3.36,61.44,61.44,0,0,0-23.89,23,63.79,63.79,0,0,0-8.61,33,73.09,73.09,0,0,0,.48,8.32h18.18A53.76,53.76,0,0,1,1006.88,93.93Zm76.43-49.53c1.7-.56,3.57-1.54,4.79.85L1082.9,47C1082.79,46.08,1081.65,44.94,1083.31,44.4Zm-26.78-6c2.12-.45,4.38-.17,5.45,1.55.53.84-1.32,2.17-2.74,2.49-1.82.79-3.25.8-4-1.47C1054.82,39.61,1055,38.77,1056.53,38.44ZM999.37,66.52a3.22,3.22,0,0,1-2.29-2.27c-.08-.27.1-.84.29-.9,1.22-.4,1.85.54,2.49,1.29a3.47,3.47,0,0,0,3.11,1.21A3.19,3.19,0,0,1,999.37,66.52Z" fill="#fdfdfd"/><path d="M836.36,89.54c3.08-1.65,3.84-1.89,6.38-.5v-58h-22.9a3,3,0,0,1-.76,1.56,3.62,3.62,0,0,1-3.14-1.56h-36.4V46.7H825v70.59q0,12.55-5.48,19t-16.07,6.48q-15.81,0-26.22-14.91l-10.41,12.2a39.88,39.88,0,0,0,15.62,13.39,47,47,0,0,0,21,4.75q19.4,0,29.36-10.51t10-31.33V90.48C840.65,90.53,838.86,89.39,836.36,89.54Zm-8.64-10.82c-.41-.74-1.08-1.69-.21-2.46a2.32,2.32,0,0,1,2.54-.42c1.2.5.87,1.35.73,2.26a18.14,18.14,0,0,0-.12,2.18c1.57.64,3.09-1.4,4.48.2C831.59,82.45,829.51,82,827.72,78.72Z" fill="#fdfdfd"/><path d="M897.34,107.46c-.77-.43-1.47-.87-.92-1.95a1.83,1.83,0,0,1,.92-.87v-4.06h13.22l-1.29-.93c3.71-1.93,5.45-1.81,7.64.93h43.46V85.31h-63V51.6a.53.53,0,0,1-.38-.68c.3-1-.05-2.26.38-3.23v-1h.92c.91-.55,1.88-1,2.9-1.57a3.52,3.52,0,0,1,.23,1.57h66.7V31.07H879.38V45.61c.93-.69,2.29-.69,3.86-1.17-1.25,1.86-1.87,3.4-3.86,3.2V156.79h90.78V141.17H897.34Zm10.41-12c1,.36,1,1.15.44,1.87-1.27,1.69-2.43,3.87-5.62,1.31C905,97.94,904.67,94.3,907.75,95.43Zm49.76-52A3.1,3.1,0,0,1,960.79,45a.92.92,0,0,1-.52,1.52c-1.37-.31-3-.16-3.87-1.45C956,44.41,956.66,43.61,957.51,43.44ZM947.08,32.06c.95-.36,2.13-.74,2.54.56.25.76-.57,1.34-1.41,1.53-1.06.39-2.18.43-2.59-.76S946.44,32.3,947.08,32.06Zm-53.65,65c-3.8-1-8.46.51-11.09-3.84-.05-.1-.25-.1-.34-.18-.69-.74-2.61,1.15-2.5-1.15a1.44,1.44,0,0,1,.91-1.08c1.5-.14,2.75.19,3.15,2,.3,1.36.86,1.48,2.14.53a13.46,13.46,0,0,1,4.66-1.87c2.74-.71,4.36.32,5.36,3.26C896.78,97,895.73,97.65,893.43,97.06Z" fill="#fdfdfd"/><path d="M742.16,34.57a33.4,33.4,0,0,0-7.89-6.46,8.24,8.24,0,0,0-5.3-3.33c-.63-.39-1.26-.76-1.86-1.18a20.88,20.88,0,0,0-4.26-2.25,9,9,0,0,0-2.32-.82c-.17-.05-.33-.14-.51-.19v.06a11.73,11.73,0,0,0-7.42,1.25l-.26-.52a3.59,3.59,0,0,1-.36-1.49c-.23,0-.46,0-.7.05a65.24,65.24,0,0,1-7,.35c-1.79,0-3.58.05-5.37.18-.59,0-1.19.12-1.8.21.08.37.17.75.23,1.14-.37-.35-.7-.69-1-1l-1.52.26a28.85,28.85,0,0,1-5,.6,9.7,9.7,0,0,1-2.79-.38,24.08,24.08,0,0,0-6.92-.73,24.3,24.3,0,0,1-5.63-.47,10.29,10.29,0,0,0-2.41-.26c-.75,0-1.51.06-2.27.11s-1.42.11-2.13.11h-.65a17.56,17.56,0,0,0-4.58.89,24.33,24.33,0,0,1-2.86.71c-4.25.68-8.64,1.38-12.61,3.72a20.33,20.33,0,0,1-4.54,1.78,21,21,0,0,0-5.76,2.44,6,6,0,0,0-1.45,1.54c-.64.87-.94,1.21-1.64,1.21h0c-2,0-9.15,5.45-9.82,7.15a14.69,14.69,0,0,1-.62,1.38c-2.58.84-3.92,3.13-5,5.69a5,5,0,0,0-1,1.76,1.39,1.39,0,0,1-.4-.21A19.87,19.87,0,0,0,615.6,50,98.12,98.12,0,0,0,609,68.87a24,24,0,0,0-2,12.73,2.17,2.17,0,0,0,.86,1.49A30.64,30.64,0,0,0,609.09,93a7.71,7.71,0,0,0-.18,1c-.55,7.08,4,10.82,7.72,15.58.37.77.74,1.54,1.13,2.31l-.07.06c.14.24.3.46.44.7a105.54,105.54,0,0,0,14,21.44c6.25,7.18,15.41,12.3,23.62,16.87l.2.1a5,5,0,0,0,3.44,2.42c.89.17,1.75.38,2.62.57.16.08.33.14.49.21a47.64,47.64,0,0,0,11.06,4,68.47,68.47,0,0,0,8.59,1.86l1.45.35,2.4.55a2.64,2.64,0,0,1,1.06-3c1-.66,2-.22,2.69.8a3.68,3.68,0,0,1-.59,2.87c1.33.27,2.66.53,4,.72l.07,0a32.79,32.79,0,0,0,11,1,6.73,6.73,0,0,0,4.28-2l.44.27c.78-.14,1.54-.32,2.31-.48-.08-.05-.17-.07-.25-.13,2.13-1.62,4.37-1.7,6.57-1.75a42.47,42.47,0,0,0,5.91-3.39,9.91,9.91,0,0,1,1.85-.88,7.88,7.88,0,0,0,4-2.75c1.79-2.58,3.87-5,5.9-7.42.92-1.08,1.83-2.16,2.73-3.26l.58-.7a2,2,0,0,0,.88-.38,10.6,10.6,0,0,0,2-2.14,2,2,0,0,0,.8-.63,57.56,57.56,0,0,0,6.92-12.82l.84-.37.16-.31c.69-1.37,1.37-2.74,2.13-4.08,5.42-9.6,8.26-18,8.92-26.38,1.19-15.16-.63-27-5.72-37.36C752,49.42,748.09,41.51,742.16,34.57ZM611.81,64.91l-.07,0,.09,0S611.82,64.89,611.81,64.91ZM673.19,34.8l.11,0h0l-.5.19C672.94,34.94,673.07,34.88,673.19,34.8ZM621.84,83.34c-1.07,2.45-1,5.52-.83,7.61a6.08,6.08,0,0,1-.46,2.47C616.09,81,617.92,67.87,626,54.31a47,47,0,0,1,21.16-19.24l-.25-.23c.41-.15.82-.29,1.23-.47,0,.09,0,.17,0,.26a50.63,50.63,0,0,1,10.49-3.21c-.35.63-.75,1.32-1,1.41-2.9.93-4.45,3-6,5-.11.14-.23.27-.33.41-.49.35-1,.68-1.49,1-1.75,1.26-3.6,2.51-5.25,4h-.16l-.32.35-.34.43h0a15.84,15.84,0,0,0-1.44,1.63,1.41,1.41,0,0,0-.93,1.14c0,.13-.06.25-.08.37s-.2.26-.27.41a1.84,1.84,0,0,0-.2.83,11.64,11.64,0,0,1-1.2,1.56,10,10,0,0,0-2.08,3.28,12.41,12.41,0,0,1-3.63,5.63,6.62,6.62,0,0,0-2.35,3.68,5.54,5.54,0,0,1-.87,1.88c-3.28,4-5,8.66-6.63,13.22C623.36,79.54,622.66,81.47,621.84,83.34Zm87,77.44c-.6,1-2.37,0-2.95-.8-1.48-2.13.81-3,1.66-4.46C709.23,157.19,709.87,159.1,708.81,160.78ZM734.15,139c-.9,1.26-3.06,2.62-3.45.85-1-4.63-4.49-2.79-7-3.49A5.91,5.91,0,0,1,718,135c2.49-2.93,4.14-.16,6,.56,2.23-.51,4.43-1.15,6.68-1.46,1-.14,2.38-.35,2.91,1.18C734,136.51,735.06,137.66,734.15,139Zm4.92-45c0,.13-.06.26-.1.4a1.56,1.56,0,0,0-.11.4c-.57,2-1,4-1.41,5.94-.78,3.8-1.51,7.39-3.3,10.78a31.22,31.22,0,0,1-3.24,4.7c-.52.67-1,1.35-1.55,2a4.22,4.22,0,0,1,3.46,1.92,27.22,27.22,0,0,1-4.19,1.79,2.54,2.54,0,0,1-2-.29c-1.14,1-2.25,2-3.3,3-1.59,1.37-3.24,2.68-4.88,4a6.84,6.84,0,0,1-.29-.64c0-.39-.06-1.2-.77-1.39a1.48,1.48,0,0,1-.2-.33l-.07-.12H717a2.43,2.43,0,0,0-2.66,2.28c-.16,1.19-.05,2,.83,2.69-1.58,1.19-3.16,2.38-4.79,3.52a5.89,5.89,0,0,0-.53.44l-.9-.15c-2.5,1-5,2.1-7.49,3.31a44.26,44.26,0,0,1-19.7,4.7A49.43,49.43,0,0,1,668.33,141a76.46,76.46,0,0,1-19.83-8.55,26.21,26.21,0,0,1-5.75-4.94,14.86,14.86,0,0,1-1.69-.47c.31-.12.61-.26.91-.4a38.47,38.47,0,0,1-3.59-5.2,5.74,5.74,0,0,0-.62-3.42c-2.62-5.12-5-10.34-7.17-15.64a20.51,20.51,0,0,1-.16-5.39c-.19-10.1,2.72-20,8.78-30a4.73,4.73,0,0,1-1.8,0l.26-.41a30,30,0,0,0,3-2.25s.1.09.15.15l.41-.61c5.4-4.85,9.82-11.46,15.63-15.75A78.73,78.73,0,0,1,679.3,36.7c1,.1,2.06.14,3.07.14h3.07c1.53,0,3.06,0,4.59-.07s3-.07,4.55-.07c1.12,0,2.24,0,3.35.07a18.41,18.41,0,0,1,8.52,2.74,8.13,8.13,0,0,0,3.4,1,3.93,3.93,0,0,1,1.67.41,16.44,16.44,0,0,0,4.67,2.92,25.15,25.15,0,0,1,2.71,1.45q.87.57,1.77,1.11a27.93,27.93,0,0,1,3.9,2.72,8.87,8.87,0,0,0,.71.54c.77.55.77.55.51,1l-.56,1.06.88.34a2.06,2.06,0,0,0,1.36,1.57c2.11.82,2.42,1.53,2.46,1.8s-.07,1-1.84,2.38a2.63,2.63,0,0,0-1.2,3c.16.52.31,1,.45,1.58.69,2.52,1.4,5.12,4.13,7.25a13.79,13.79,0,0,1,3.81,4.83,1.61,1.61,0,0,0-.14,1.35,16.23,16.23,0,0,0,2.23,4.75l.21.44c.14.57.29,1.15.42,1.73s.31,1.23.47,1.84C739.29,87.8,740.07,90.81,739.07,94Z" fill="#fdfdfd"/></svg>